<svg xmlns="http://www.w3.org/2000/svg" id="c" width="140.027" height="45.01" viewBox="0 0 140.027 45.01">
  <g id="Grupo_10" data-name="Grupo 10">
    <path id="Trazado_6" data-name="Trazado 6" d="M22.592,0a22.593,22.593,0,0,0-2.82,45.01v-3.2c-3.728-.558-7.442-1.822-9.919-5.219H35.331c-2.476,3.4-6.191,4.661-9.919,5.219v3.2A22.593,22.593,0,0,0,22.592,0ZM10.126,16.33c.992-1.037,8.544-8.4,9.821-9.685C23.072,3.507,22.456.979,22.456.979,26.067,3.728,24.738,6.7,22.78,8.6c-1.595,1.549-7.228,7.222-9.834,9.718-4.129,3.967-3.63,7.248-2.852,10.055-3.027-3.112-4.4-7.423.032-12.038ZM15.552,18c1.1-1.1,7.04-6.917,9.05-8.875,4.22-4.11,3.974-5.744,4.162-6.6C31.72,5.556,29.9,8.635,28.3,10.23c-1.4,1.4-8,8.058-10.677,10.508-.681.622-5.121,4.693-4.83,8.466-2.476-3.138-1.815-7.112,2.755-11.215Zm2.554,4.745c1.1-1.063,8.084-7.941,9.419-9.238,4.33-4.214,4.136-5.536,4.136-5.536,1.867,4.447-.694,6.872-2.237,8.4-1.679,1.66-5.932,5.841-8.376,8.246C14.9,30.657,17.1,35.545,17.1,35.545,13.2,32.647,14.08,26.676,18.106,22.741Zm16.4,3.066c-1.5,1.472-.9.888-3.339,3.28-3.961,3.877-3.987,6.463-3.987,6.463-2.211-2.431-.856-6.47,1.523-8.8.992-.972,2.833-2.716,4.142-3.961,2.677-2.541,3.514-3.287,3.89-4.266,1.024,4.259-1.232,6.21-2.23,7.287Zm.143-7.371c-1.53,1.536-4.57,4.447-7,6.872-5.75,5.257-5.841,8.654-5.536,10.243-4.233-4.979-.875-8.706,1.277-10.82.985-.972,7.086-6.988,8.486-8.317,4.94-4.726,4.94-6.146,4.94-6.146,1.88,4.441-.635,6.638-2.165,8.175Z" fill="#fff"/>
    <g id="Grupo_9" data-name="Grupo 9" transform="translate(51.525 13.964)">
      <g id="Grupo_8" data-name="Grupo 8" transform="translate(13.244)">
        <path id="Trazado_7" data-name="Trazado 7" d="M108.824,39.335a5.358,5.358,0,0,1-4.123,2.489c-3.06,0-4.791-2.347-4.791-5.069a5.953,5.953,0,0,1,1.686-4.22,5.091,5.091,0,0,1,3.578-1.7,3.816,3.816,0,0,1,3.747,3.721c0,.473-.143.758-.642.83-.428.071-3.345.285-5.834.376.071,2.8,1.634,4.1,3.319,4.1a3.852,3.852,0,0,0,2.658-1.089l.4.57Zm-6.256-4.648c1.089,0,2.133-.026,3.222-.071.382,0,.525-.071.545-.447,0-1.232-.642-2.418-1.686-2.418-.972,0-1.874,1.07-2.087,2.937Z" transform="translate(-99.91 -24.808)" fill="#fff"/>
        <path id="Trazado_8" data-name="Trazado 8" d="M125.056,39.309A5.525,5.525,0,0,1,121,41.825a4.885,4.885,0,0,1-5-5,5.7,5.7,0,0,1,2.392-4.577,6.78,6.78,0,0,1,3.864-1.42,3.452,3.452,0,0,1,2.062.59.934.934,0,0,1,.428.8c-.026.616-.6,1.212-.946,1.212a.783.783,0,0,1-.5-.259,3.683,3.683,0,0,0-2.392-1.141c-1.16,0-2.321,1.044-2.321,3.578,0,3.2,2.249,4.246,3.39,4.246a3.634,3.634,0,0,0,2.658-1.089l.428.545Z" transform="translate(-105.569 -24.808)" fill="#fff"/>
        <path id="Trazado_9" data-name="Trazado 9" d="M140.725,27.156c-.473-1.491-1.277-3.2-3.248-3.2a2.328,2.328,0,0,0-2.418,2.418c0,1.472.972,2.25,2.989,3.248,2.25,1.141,4.149,2.373,4.149,4.836,0,2.632-2.23,4.693-5.595,4.693a7.509,7.509,0,0,1-2.347-.357,8.218,8.218,0,0,1-1.348-.5,27.894,27.894,0,0,1-.687-3.89l.8-.24c.428,1.491,1.7,4.052,4.032,4.052a2.422,2.422,0,0,0,2.561-2.632c0-1.588-1.134-2.392-2.917-3.319-2.107-1.089-4.052-2.347-4.052-4.765s1.971-4.48,5.219-4.48a10.736,10.736,0,0,1,3.2.59c.1.875.24,1.874.428,3.365l-.758.169Z" transform="translate(-111.274 -22.061)" fill="#fff"/>
        <path id="Trazado_10" data-name="Trazado 10" d="M158.085,41.821a2.107,2.107,0,0,1-1.329-.473,2.419,2.419,0,0,1-.59-.946,8.015,8.015,0,0,1-2.587,1.42,3.02,3.02,0,0,1-3.079-2.989c0-1.206.59-1.848,1.848-2.3a17.656,17.656,0,0,0,3.747-1.562v-.59c0-1.562-.661-2.444-1.66-2.444a1.043,1.043,0,0,0-.875.428,4.076,4.076,0,0,0-.687,1.614.828.828,0,0,1-.9.713,1.364,1.364,0,0,1-1.3-1.141c0-.376.285-.687.8-1.044a11.146,11.146,0,0,1,3.792-1.686,3.182,3.182,0,0,1,3.371,3.7v4.1c0,1.089.382,1.4.784,1.4a1.852,1.852,0,0,0,.8-.214l.259.713-2.392,1.3Zm-1.99-5.971c-.473.259-1.115.59-1.614.856a1.73,1.73,0,0,0-1.232,1.66,1.638,1.638,0,0,0,1.517,1.8,2.3,2.3,0,0,0,1.329-.545V35.857Z" transform="translate(-117.704 -24.804)" fill="#fff"/>
        <path id="Trazado_11" data-name="Trazado 11" d="M167.6,38.272v-.713c1.446-.188,1.588-.311,1.588-1.848V24.736c0-1.491-.117-1.562-1.491-1.7V22.37a27.028,27.028,0,0,0,4.1-.83V35.718c0,1.588.169,1.7,1.634,1.848v.713H167.6Z" transform="translate(-123.718 -21.54)" fill="#fff"/>
        <path id="Trazado_12" data-name="Trazado 12" d="M189.644,41.029a40.267,40.267,0,0,0-4.032.856l-.169-.169V40.2a12.787,12.787,0,0,1-1.4,1.018,3.6,3.6,0,0,1-1.964.661c-1.848,0-3.06-1.16-3.06-3.436V33.651c0-1.212-.071-1.3-1.348-1.588V31.4A33.562,33.562,0,0,0,181.7,31c-.045.9-.071,2.062-.071,3.533v3.345c0,1.757.9,2.3,1.8,2.3a2.759,2.759,0,0,0,2.016-.83V33.658c0-1.258-.1-1.348-1.634-1.588v-.661a34.086,34.086,0,0,0,4.246-.4v7.773c0,1.232.143,1.42,1.018,1.517l.57.045v.687Z" transform="translate(-127.26 -24.867)" fill="#fff"/>
        <path id="Trazado_13" data-name="Trazado 13" d="M209.57,37.66a31.373,31.373,0,0,0-4.292.927V37.141l-1.446.9a2.9,2.9,0,0,1-1.42.519,4.912,4.912,0,0,1-4.693-5.141,6.11,6.11,0,0,1,6.353-5.854,5.969,5.969,0,0,1,1.206.169V24.7c0-1.374-.143-1.472-1.679-1.634V22.38a27.875,27.875,0,0,0,4.292-.83V35.4c0,1.3.143,1.4,1.089,1.517l.59.071v.687Zm-4.292-7.915a2.23,2.23,0,0,0-1.99-1.232c-.784,0-2.632.733-2.632,4.266,0,2.891,1.7,4.1,2.963,4.1a2.993,2.993,0,0,0,1.66-.545Z" transform="translate(-134.312 -21.544)" fill="#fff"/>
      </g>
      <path id="Trazado_14" data-name="Trazado 14" d="M79.739,23.2c-.065,1.381-.175,2.814-.259,4.181h.81a5.972,5.972,0,0,1,.9-2.308c.331-.447.778-.661,2.729-.661h1.07V35.789c0,1.971-.24,2.159-2.282,2.327v.758h7.41v-.758c-2.165-.169-2.373-.357-2.373-2.327V24.412h1.284c1.543,0,2.068.143,2.5.616a5.723,5.723,0,0,1,.927,2.327l.784-.045c-.1-1.232-.194-2.8-.227-4.11H79.746Z" transform="translate(-79.48 -22.124)" fill="#fff"/>
    </g>
  </g>
</svg>