<?xml version="1.0" encoding="UTF-8"?>
<svg id="Capa_2" xmlns="http://www.w3.org/2000/svg" viewBox="0 0 335.57 335.16">
  <defs>
    <style>
      .cls-1 {
        fill: #fff;
      }

      .cls-2 {
        fill: #615efc;
      }
    </style>
  </defs>
  <g id="Capa_1-2" data-name="Capa_1">
    <g>
      <path class="cls-2" d="M136.5,202.9c-10.99,8.67-21.33,16.83-31.98,25.23,4.96,5.31,9.63,10.46,14.48,15.44,2.24,2.3,3.26,4.78,3.17,8.02-.19,6.23-.02,12.48-.07,18.71-.03,4.34-2.42,7.1-6,7.08-3.55-.03-5.92-2.82-5.96-7.16-.05-5.36.03-10.73-.05-16.09-.01-1.06-.12-2.4-.75-3.11-3.53-4-7.22-7.85-11.32-12.25-2.03,5.51-3.87,10.47-5.68,15.43-1.37,3.74-2.59,7.54-4.08,11.24-1.42,3.51-4.72,4.95-7.9,3.69-2.98-1.17-4.46-4.33-3.25-7.76,4.19-11.86,8.44-23.7,12.86-35.48.61-1.63,2.06-3.13,3.48-4.25,23.07-18.29,46.19-36.51,69.3-54.74,4.01-3.16,5.94-3.18,9.96-.01,23.12,18.22,46.25,36.44,69.3,54.76,1.58,1.25,3.02,3.08,3.73,4.94,4.28,11.3,8.38,22.66,12.42,34.05,1.87,5.27-1.47,9.97-6.31,8.59-1.98-.56-4.11-2.85-4.92-4.85-3.31-8.17-6.14-16.54-9.44-25.64-4.21,4.55-8.09,8.64-11.81,12.88-.52.6-.3,1.91-.31,2.89-.03,5.24.03,10.48-.03,15.72-.05,4.33-2.46,7.12-6.01,7.13-3.59,0-5.92-2.72-5.95-7.11-.04-6.49-.23-12.99.11-19.46.12-2.27,1.14-4.88,2.61-6.61,4.61-5.4,9.62-10.46,14.86-16.05-10.53-8.32-20.94-16.54-32.01-25.29-.11,2.18-.31,3.61-.24,5.02,1.15,22.67,1.86,45.38,3.76,67.99.66,7.87,3.59,15.77,6.72,23.14,3.38,7.95,10,12.34,19.13,11.52,8.19-.74,16.4-1.44,24.53-2.6,8.89-1.27,17.06.06,24.73,4.85,4.54,2.83,9.23,5.47,14.04,7.81,5.76,2.8,11.91,3.69,18.2,1.94,7.82-2.18,13.68-9.35,13.65-17.29-.07-19.33.4-38.71-.79-57.99-2.52-40.71-15.96-77.87-38.81-111.64-1.05-1.55-2.16-3.05-3.18-4.62-2.24-3.45-1.79-6.9,1.13-8.91,2.87-1.98,6.55-1.34,8.68,2.17,7.61,12.56,15.87,24.84,22.28,38,15.42,31.64,22.14,65.48,22.68,100.57.21,13.47.05,26.95.04,40.42-.01,19.58-14.91,33.32-34.48,31.78-8.88-.7-17.46-2.97-24.32-8.65-8.7-7.21-18.09-7.81-28.49-5.73-9.82,1.97-19.76,2.92-29.69.44-9.41-2.35-16.23-7.75-20.32-16.68-4.62-10.08-7.67-20.58-8.29-31.63-1.2-21.42-2.09-42.85-3.11-64.28-.03-.62-.1-1.28.05-1.87,2.6-9.91-1.57-16.5-10-21.33-3.21-1.84-6.04-6.23-8.96-6.15-3.15.08-6.01,4.4-9.35,6.21-8.58,4.64-10.18,11.49-10.29,21.02-.28,24.91-2.09,49.82-3.82,74.69-.41,5.84-2.37,11.76-4.58,17.26-9.33,23.22-23.15,25.67-41.19,23.82-5.33-.55-10.6-1.61-15.92-2.29-8.22-1.04-15.65.53-22.57,5.62-11.37,8.37-24.14,11.81-38.15,8.21-12.63-3.25-21.85-14.6-21.91-27.61-.09-20.08-.42-40.2.74-60.23,2.26-38.82,14.48-74.65,34.99-107.65,2.76-4.45,5.56-8.88,8.58-13.15,2.92-4.14,6.13-4.93,9.14-2.67,3.08,2.31,3.23,6.08.51,9.92-27.33,38.56-41.35,81.5-42.03,128.74-.2,13.97-.04,27.95-.03,41.92,0,13.93,10.67,22.84,24.32,19.83,4.66-1.03,9.12-3.22,13.5-5.27,4.17-1.95,8.05-4.5,12.14-6.62,6.29-3.27,12.91-3.99,19.97-2.96,8.26,1.2,16.62,1.71,24.93,2.56,8.61.87,14.64-3.07,18.87-10.2,4.4-7.43,6.84-15.65,7.4-24.12,1.53-23.02,2.51-46.08,3.68-69.12.05-1.08-.15-2.18-.31-4.15Z"/>
      <path class="cls-2" d="M177.37,95.83h-19.25c0,1.38,0,2.7,0,4.02,0,9.98.12,19.96-.09,29.94-.05,2.36-.71,4.99-1.92,7-6.45,10.63-11.96,21.94-21.41,30.46-2.4,2.16-4.71,4.46-7.33,6.33-13.51,9.61-27.16,19.04-40.62,28.73-1.6,1.15-2.97,3.36-3.37,5.3-2.01,9.76-3.72,19.58-5.4,29.41-.51,2.97-1.95,4.93-4.57,6.36-9.29,5.09-18.5,10.33-27.76,15.46-4.04,2.24-7.64,1.53-9.38-1.72-1.74-3.24-.4-6.48,3.73-8.8,7.93-4.46,15.93-8.8,23.77-13.41,1.36-.8,2.66-2.58,3-4.12,1.55-7.14,2.74-14.36,4.16-22.1-6.25,1.47-11.9,2.81-17.55,4.13-4.61,1.08-7.7-.41-8.59-4.1-.89-3.71,1.2-6.4,5.83-7.51,6.42-1.53,12.93-2.77,19.24-4.67,3.96-1.19,7.85-3.01,11.37-5.18,5.38-3.32,10.43-7.2,15.96-11.09-3-4.69-5.79-9.22-8.8-13.59-.45-.66-1.93-.9-2.91-.85-4.48.23-8.95.69-13.44.95-5.56.32-8.28-1.5-8.46-5.5-.19-4.04,2.43-6.13,7.8-6.46,4.57-.28,9.14-.73,13.85-1.11.35-5.7.65-11.03,1-16.37.22-3.41,1.96-5.72,5.39-6.19,2.92-.4,5.11,1.1,6.18,3.81.43,1.1.39,2.45.34,3.68-.25,5.36-.75,10.71-.79,16.07-.02,1.97.61,4.15,1.58,5.87,2.39,4.22,5.15,8.22,8.22,13.04,6.17-4.7,12.09-9.35,18.15-13.79,6.32-4.62,7.44-10.5,5.85-17.91-2.41-11.27-4.78-22.47-11.51-32.11-7.69-11.02-18.58-14.35-30.77-8.71-5.69,2.63-10.72,6.71-16.01,10.2-1.24.82-2.22,2.05-3.5,2.8-2.87,1.7-5.61,1.21-7.69-1.34-1.97-2.42-2.09-5.35.13-7.5,9.67-9.34,20.51-16.82,34.27-18.46,13.16-1.57,23.62,3.71,31.73,13.88,7.65,9.6,11.41,20.9,13.76,32.76.12.61.26,1.21.41,1.81.03.1.16.18.24.27,3.03-2.65,3.94-4.58,3.94-8.44,0-39.3,0-78.6,0-117.9,0-1.25-.08-2.51.1-3.74.47-3.23,3.17-5.53,6.17-5.4,3.1.14,5.57,2.5,5.65,5.85.14,5.84.04,11.68.04,17.77h19.28c0-1.8-.38-3.62.07-5.2,1.76-6.2-4.9-15.08,5.8-18.44,10.94,3.31,5.77,12.37,5.86,18.67.53,35.8.31,71.61.17,107.41-.02,3.92,1.36,6.87,3.94,10.08,1.05-4.24,1.9-8.09,2.96-11.89,2.49-8.97,6.18-17.39,12.2-24.6,10.57-12.66,24.93-16.48,40.41-10.85,9.18,3.34,16.99,8.85,24.1,15.42,2.73,2.52,2.87,6.24.59,8.67-2.23,2.39-5.49,2.46-8.44.32-5.13-3.72-10-7.96-15.54-10.95-14.52-7.82-26.9-4.15-35.32,10.09-7.02,11.87-9.43,25.08-10.68,38.58-.08.85.36,1.95.91,2.64,6.57,8.19,15.22,13.81,24.19,19.63,3.19-5,6.31-9.78,9.26-14.65.52-.86.46-2.16.42-3.25-.26-5.86-.69-11.71-.9-17.56-.14-3.93,2.04-6.52,5.41-6.8,3.39-.29,6.18,2.28,6.49,6.27.42,5.34.66,10.69,1,16.45,5.16.4,10.21.81,15.27,1.18,3.17.23,5.56,1.52,6.3,4.81.87,3.87-1.86,7.25-6.01,7.14-5.11-.14-10.2-.8-15.31-.89-1.39-.02-3.31.84-4.12,1.94-2.79,3.81-5.19,7.91-7.97,12.25,1.01.79,1.99,1.47,2.88,2.25,11.67,10.24,25.4,15.83,40.62,18.11.98.15,1.94.45,2.91.7,4.7,1.22,6.69,3.76,5.87,7.51-.79,3.66-3.99,5.21-8.57,4.13-5.09-1.2-10.18-2.43-15.27-3.63-.57-.13-1.16-.2-2.25-.38,1.48,8.16,2.82,15.98,4.4,23.74.19.93,1.6,1.77,2.62,2.35,8.13,4.61,16.31,9.14,24.47,13.7,2.66,1.49,4.44,3.78,3.38,6.72-.66,1.82-2.52,3.63-4.3,4.49-1.23.6-3.46-.04-4.87-.8-9.75-5.28-19.49-10.6-29.02-16.27-1.74-1.03-3.17-3.56-3.6-5.64-2.02-9.63-3.7-19.33-5.35-29.04-.47-2.77-1.67-4.62-4.02-6.24-12.22-8.42-24.24-17.13-36.47-25.53-10.35-7.11-18.06-16.41-25.11-26.75-7.21-10.58-10.88-21.43-9.49-34.23.68-6.27.12-12.68.12-19.47ZM177.04,53.65v-17.46h-18.69v17.46h18.69ZM177.05,83.54v-17.45h-18.71v17.45h18.71Z"/>
      <path class="cls-1" d="M177.04,53.65h-18.69v-17.46h18.69v17.46Z"/>
      <path class="cls-1" d="M177.05,83.54h-18.71v-17.45h18.71v17.45Z"/>
    </g>
  </g>
</svg>